<mxfile host="app.diagrams.net" agent="Mozilla/5.0 (Windows NT 10.0; Win64; x64) AppleWebKit/537.36 (KHTML, like Gecko) Chrome/127.0.0.0 Safari/537.36 OPR/113.0.0.0" version="24.7.14">
  <diagram name="Page-1" id="0783ab3e-0a74-02c8-0abd-f7b4e66b4bec">
    <mxGraphModel grid="1" page="1" gridSize="10" guides="1" tooltips="1" connect="1" arrows="1" fold="1" pageScale="1" pageWidth="850" pageHeight="1100" background="none" math="0" shadow="0">
      <root>
        <mxCell id="0" />
        <mxCell id="1" parent="0" />
        <mxCell id="1c1d494c118603dd-1" value="" style="swimlane;html=1;childLayout=stackLayout;startSize=20;rounded=0;shadow=0;comic=0;labelBackgroundColor=none;strokeWidth=1;fontFamily=Verdana;fontSize=12;align=center;direction=east;" vertex="1" parent="1">
          <mxGeometry x="350" y="15" width="1000" height="1070" as="geometry">
            <mxRectangle y="20" width="70" height="30" as="alternateBounds" />
          </mxGeometry>
        </mxCell>
        <mxCell id="1c1d494c118603dd-2" value="Usuario" style="swimlane;html=1;startSize=20;" vertex="1" parent="1c1d494c118603dd-1">
          <mxGeometry y="20" width="250" height="1050" as="geometry" />
        </mxCell>
        <mxCell id="LnvEPzy6kQ-SbxnsCrJ--16" style="edgeStyle=orthogonalEdgeStyle;rounded=0;orthogonalLoop=1;jettySize=auto;html=1;entryX=0.5;entryY=0;entryDx=0;entryDy=0;" edge="1" parent="1c1d494c118603dd-2" source="60571a20871a0731-4" target="LnvEPzy6kQ-SbxnsCrJ--13">
          <mxGeometry relative="1" as="geometry" />
        </mxCell>
        <mxCell id="60571a20871a0731-4" value="" style="ellipse;whiteSpace=wrap;html=1;rounded=0;shadow=0;comic=0;labelBackgroundColor=none;strokeWidth=1;fillColor=#000000;fontFamily=Verdana;fontSize=12;align=center;" vertex="1" parent="1c1d494c118603dd-2">
          <mxGeometry x="105" y="40" width="40" height="40" as="geometry" />
        </mxCell>
        <mxCell id="60571a20871a0731-5" value="" style="shape=mxgraph.bpmn.shape;html=1;verticalLabelPosition=bottom;labelBackgroundColor=#ffffff;verticalAlign=top;perimeter=ellipsePerimeter;outline=end;symbol=terminate;rounded=0;shadow=0;comic=0;strokeWidth=1;fontFamily=Verdana;fontSize=12;align=center;" vertex="1" parent="1c1d494c118603dd-2">
          <mxGeometry x="105" y="980" width="40" height="40" as="geometry" />
        </mxCell>
        <mxCell id="LnvEPzy6kQ-SbxnsCrJ--13" value="Seleccionar apartado configuración intervalos" style="rounded=0;whiteSpace=wrap;html=1;" vertex="1" parent="1c1d494c118603dd-2">
          <mxGeometry x="65" y="120" width="120" height="60" as="geometry" />
        </mxCell>
        <mxCell id="LnvEPzy6kQ-SbxnsCrJ--26" value="Configurar intervalos de muestra" style="whiteSpace=wrap;html=1;rounded=0;" vertex="1" parent="1c1d494c118603dd-2">
          <mxGeometry x="65" y="240" width="120" height="60" as="geometry" />
        </mxCell>
        <mxCell id="LnvEPzy6kQ-SbxnsCrJ--57" value="" style="edgeStyle=orthogonalEdgeStyle;rounded=0;orthogonalLoop=1;jettySize=auto;html=1;" edge="1" parent="1c1d494c118603dd-2" source="LnvEPzy6kQ-SbxnsCrJ--53" target="LnvEPzy6kQ-SbxnsCrJ--56">
          <mxGeometry relative="1" as="geometry" />
        </mxCell>
        <mxCell id="LnvEPzy6kQ-SbxnsCrJ--53" value="Visualiza los cambios" style="whiteSpace=wrap;html=1;rounded=0;" vertex="1" parent="1c1d494c118603dd-2">
          <mxGeometry x="65" y="630" width="120" height="60" as="geometry" />
        </mxCell>
        <mxCell id="LnvEPzy6kQ-SbxnsCrJ--56" value="Entra al historial" style="whiteSpace=wrap;html=1;rounded=0;" vertex="1" parent="1c1d494c118603dd-2">
          <mxGeometry x="65" y="770" width="120" height="60" as="geometry" />
        </mxCell>
        <mxCell id="LnvEPzy6kQ-SbxnsCrJ--62" style="edgeStyle=orthogonalEdgeStyle;rounded=0;orthogonalLoop=1;jettySize=auto;html=1;" edge="1" parent="1c1d494c118603dd-2" source="LnvEPzy6kQ-SbxnsCrJ--60" target="60571a20871a0731-5">
          <mxGeometry relative="1" as="geometry" />
        </mxCell>
        <mxCell id="LnvEPzy6kQ-SbxnsCrJ--60" value="Visualiza el historial" style="whiteSpace=wrap;html=1;rounded=0;" vertex="1" parent="1c1d494c118603dd-2">
          <mxGeometry x="65" y="880" width="120" height="60" as="geometry" />
        </mxCell>
        <mxCell id="1c1d494c118603dd-3" value="Interfaz" style="swimlane;html=1;startSize=20;" vertex="1" parent="1c1d494c118603dd-1">
          <mxGeometry x="250" y="20" width="250" height="1050" as="geometry" />
        </mxCell>
        <mxCell id="LnvEPzy6kQ-SbxnsCrJ--24" value="Despliega apartado Configuración" style="rounded=0;whiteSpace=wrap;html=1;" vertex="1" parent="1c1d494c118603dd-3">
          <mxGeometry x="65" y="120" width="120" height="60" as="geometry" />
        </mxCell>
        <mxCell id="LnvEPzy6kQ-SbxnsCrJ--28" value="Botón guardar configuración" style="whiteSpace=wrap;html=1;rounded=0;" vertex="1" parent="1c1d494c118603dd-3">
          <mxGeometry x="65" y="240" width="120" height="60" as="geometry" />
        </mxCell>
        <mxCell id="LnvEPzy6kQ-SbxnsCrJ--40" value="Muestra mensaje de error en los cambios" style="whiteSpace=wrap;html=1;rounded=0;" vertex="1" parent="1c1d494c118603dd-3">
          <mxGeometry x="65" y="365" width="120" height="60" as="geometry" />
        </mxCell>
        <mxCell id="LnvEPzy6kQ-SbxnsCrJ--51" value="Notifica los cambios hechos" style="whiteSpace=wrap;html=1;rounded=0;" vertex="1" parent="1c1d494c118603dd-3">
          <mxGeometry x="65" y="630" width="120" height="60" as="geometry" />
        </mxCell>
        <mxCell id="LnvEPzy6kQ-SbxnsCrJ--58" value="Muestra el historial de los cambios" style="whiteSpace=wrap;html=1;rounded=0;" vertex="1" parent="1c1d494c118603dd-3">
          <mxGeometry x="65" y="770" width="120" height="60" as="geometry" />
        </mxCell>
        <mxCell id="1c1d494c118603dd-4" value="Capa de negocio" style="swimlane;html=1;startSize=20;" vertex="1" parent="1c1d494c118603dd-1">
          <mxGeometry x="500" y="20" width="250" height="1050" as="geometry">
            <mxRectangle x="500" y="20" width="40" height="970" as="alternateBounds" />
          </mxGeometry>
        </mxCell>
        <mxCell id="LnvEPzy6kQ-SbxnsCrJ--39" value="" style="edgeStyle=orthogonalEdgeStyle;rounded=0;orthogonalLoop=1;jettySize=auto;html=1;entryX=0.5;entryY=0;entryDx=0;entryDy=0;" edge="1" parent="1c1d494c118603dd-4" source="LnvEPzy6kQ-SbxnsCrJ--36" target="IqG-Zo2VAbiaXGqvBdSu-1">
          <mxGeometry relative="1" as="geometry">
            <mxPoint x="120" y="350" as="targetPoint" />
          </mxGeometry>
        </mxCell>
        <mxCell id="LnvEPzy6kQ-SbxnsCrJ--36" value="Corrobora los datos" style="whiteSpace=wrap;html=1;rounded=0;" vertex="1" parent="1c1d494c118603dd-4">
          <mxGeometry x="60" y="240" width="120" height="60" as="geometry" />
        </mxCell>
        <mxCell id="LnvEPzy6kQ-SbxnsCrJ--44" value="Recopila los datos pedidos" style="whiteSpace=wrap;html=1;rounded=0;" vertex="1" parent="1c1d494c118603dd-4">
          <mxGeometry x="60" y="500" width="120" height="60" as="geometry" />
        </mxCell>
        <mxCell id="LnvEPzy6kQ-SbxnsCrJ--48" value="Valida los cambios" style="whiteSpace=wrap;html=1;rounded=0;" vertex="1" parent="1c1d494c118603dd-4">
          <mxGeometry x="60" y="630" width="120" height="60" as="geometry" />
        </mxCell>
        <mxCell id="IqG-Zo2VAbiaXGqvBdSu-6" style="edgeStyle=orthogonalEdgeStyle;rounded=0;orthogonalLoop=1;jettySize=auto;html=1;entryX=0.5;entryY=0;entryDx=0;entryDy=0;" edge="1" parent="1c1d494c118603dd-4" source="IqG-Zo2VAbiaXGqvBdSu-3" target="LnvEPzy6kQ-SbxnsCrJ--44">
          <mxGeometry relative="1" as="geometry" />
        </mxCell>
        <mxCell id="IqG-Zo2VAbiaXGqvBdSu-7" value="" style="group" connectable="0" vertex="1" parent="1c1d494c118603dd-4">
          <mxGeometry x="60" y="350" width="105" height="105" as="geometry" />
        </mxCell>
        <mxCell id="IqG-Zo2VAbiaXGqvBdSu-1" value="¿Campos completos?" style="rhombus;whiteSpace=wrap;html=1;rounded=0;" vertex="1" parent="IqG-Zo2VAbiaXGqvBdSu-7">
          <mxGeometry x="15" width="90" height="90" as="geometry" />
        </mxCell>
        <mxCell id="IqG-Zo2VAbiaXGqvBdSu-2" value="No" style="rounded=1;whiteSpace=wrap;html=1;" vertex="1" parent="IqG-Zo2VAbiaXGqvBdSu-7">
          <mxGeometry y="35" width="20" height="20" as="geometry" />
        </mxCell>
        <mxCell id="IqG-Zo2VAbiaXGqvBdSu-3" value="Si" style="rounded=1;whiteSpace=wrap;html=1;" vertex="1" parent="IqG-Zo2VAbiaXGqvBdSu-7">
          <mxGeometry x="50" y="85" width="20" height="20" as="geometry" />
        </mxCell>
        <mxCell id="LnvEPzy6kQ-SbxnsCrJ--8" value="Base de datos" style="swimlane;html=1;startSize=20;" vertex="1" parent="1c1d494c118603dd-1">
          <mxGeometry x="750" y="20" width="250" height="1050" as="geometry">
            <mxRectangle x="500" y="20" width="40" height="970" as="alternateBounds" />
          </mxGeometry>
        </mxCell>
        <mxCell id="LnvEPzy6kQ-SbxnsCrJ--46" value="Trae los datos pedidos" style="whiteSpace=wrap;html=1;rounded=0;" vertex="1" parent="LnvEPzy6kQ-SbxnsCrJ--8">
          <mxGeometry x="65" y="500" width="120" height="60" as="geometry" />
        </mxCell>
        <mxCell id="LnvEPzy6kQ-SbxnsCrJ--25" style="edgeStyle=orthogonalEdgeStyle;rounded=0;orthogonalLoop=1;jettySize=auto;html=1;entryX=0;entryY=0.5;entryDx=0;entryDy=0;" edge="1" parent="1c1d494c118603dd-1" source="LnvEPzy6kQ-SbxnsCrJ--13" target="LnvEPzy6kQ-SbxnsCrJ--24">
          <mxGeometry relative="1" as="geometry" />
        </mxCell>
        <mxCell id="LnvEPzy6kQ-SbxnsCrJ--27" value="" style="edgeStyle=orthogonalEdgeStyle;rounded=0;orthogonalLoop=1;jettySize=auto;html=1;" edge="1" parent="1c1d494c118603dd-1" source="LnvEPzy6kQ-SbxnsCrJ--24" target="LnvEPzy6kQ-SbxnsCrJ--26">
          <mxGeometry relative="1" as="geometry">
            <Array as="points">
              <mxPoint x="375" y="210" />
              <mxPoint x="125" y="210" />
            </Array>
          </mxGeometry>
        </mxCell>
        <mxCell id="LnvEPzy6kQ-SbxnsCrJ--29" value="" style="edgeStyle=orthogonalEdgeStyle;rounded=0;orthogonalLoop=1;jettySize=auto;html=1;entryX=0;entryY=0.5;entryDx=0;entryDy=0;exitX=1;exitY=0.5;exitDx=0;exitDy=0;" edge="1" parent="1c1d494c118603dd-1" source="LnvEPzy6kQ-SbxnsCrJ--26" target="LnvEPzy6kQ-SbxnsCrJ--28">
          <mxGeometry relative="1" as="geometry">
            <mxPoint x="210" y="290" as="sourcePoint" />
            <Array as="points" />
          </mxGeometry>
        </mxCell>
        <mxCell id="LnvEPzy6kQ-SbxnsCrJ--37" value="" style="edgeStyle=orthogonalEdgeStyle;rounded=0;orthogonalLoop=1;jettySize=auto;html=1;" edge="1" parent="1c1d494c118603dd-1" source="LnvEPzy6kQ-SbxnsCrJ--28" target="LnvEPzy6kQ-SbxnsCrJ--36">
          <mxGeometry relative="1" as="geometry" />
        </mxCell>
        <mxCell id="LnvEPzy6kQ-SbxnsCrJ--42" style="edgeStyle=orthogonalEdgeStyle;rounded=0;orthogonalLoop=1;jettySize=auto;html=1;entryX=0.5;entryY=1;entryDx=0;entryDy=0;" edge="1" parent="1c1d494c118603dd-1" source="LnvEPzy6kQ-SbxnsCrJ--40" target="LnvEPzy6kQ-SbxnsCrJ--26">
          <mxGeometry relative="1" as="geometry" />
        </mxCell>
        <mxCell id="LnvEPzy6kQ-SbxnsCrJ--47" value="" style="edgeStyle=orthogonalEdgeStyle;rounded=0;orthogonalLoop=1;jettySize=auto;html=1;" edge="1" parent="1c1d494c118603dd-1" source="LnvEPzy6kQ-SbxnsCrJ--44" target="LnvEPzy6kQ-SbxnsCrJ--46">
          <mxGeometry relative="1" as="geometry" />
        </mxCell>
        <mxCell id="LnvEPzy6kQ-SbxnsCrJ--49" value="" style="edgeStyle=orthogonalEdgeStyle;rounded=0;orthogonalLoop=1;jettySize=auto;html=1;" edge="1" parent="1c1d494c118603dd-1" source="LnvEPzy6kQ-SbxnsCrJ--46" target="LnvEPzy6kQ-SbxnsCrJ--48">
          <mxGeometry relative="1" as="geometry">
            <Array as="points">
              <mxPoint x="875" y="680" />
            </Array>
          </mxGeometry>
        </mxCell>
        <mxCell id="LnvEPzy6kQ-SbxnsCrJ--52" value="" style="edgeStyle=orthogonalEdgeStyle;rounded=0;orthogonalLoop=1;jettySize=auto;html=1;" edge="1" parent="1c1d494c118603dd-1" source="LnvEPzy6kQ-SbxnsCrJ--48" target="LnvEPzy6kQ-SbxnsCrJ--51">
          <mxGeometry relative="1" as="geometry" />
        </mxCell>
        <mxCell id="LnvEPzy6kQ-SbxnsCrJ--54" value="" style="edgeStyle=orthogonalEdgeStyle;rounded=0;orthogonalLoop=1;jettySize=auto;html=1;" edge="1" parent="1c1d494c118603dd-1" source="LnvEPzy6kQ-SbxnsCrJ--51" target="LnvEPzy6kQ-SbxnsCrJ--53">
          <mxGeometry relative="1" as="geometry" />
        </mxCell>
        <mxCell id="LnvEPzy6kQ-SbxnsCrJ--59" value="" style="edgeStyle=orthogonalEdgeStyle;rounded=0;orthogonalLoop=1;jettySize=auto;html=1;exitX=1;exitY=0.5;exitDx=0;exitDy=0;" edge="1" parent="1c1d494c118603dd-1" source="LnvEPzy6kQ-SbxnsCrJ--56" target="LnvEPzy6kQ-SbxnsCrJ--58">
          <mxGeometry relative="1" as="geometry">
            <mxPoint x="185" y="810" as="sourcePoint" />
          </mxGeometry>
        </mxCell>
        <mxCell id="LnvEPzy6kQ-SbxnsCrJ--61" value="" style="edgeStyle=orthogonalEdgeStyle;rounded=0;orthogonalLoop=1;jettySize=auto;html=1;" edge="1" parent="1c1d494c118603dd-1" source="LnvEPzy6kQ-SbxnsCrJ--58" target="LnvEPzy6kQ-SbxnsCrJ--60">
          <mxGeometry relative="1" as="geometry">
            <Array as="points">
              <mxPoint x="375" y="930" />
            </Array>
          </mxGeometry>
        </mxCell>
        <mxCell id="IqG-Zo2VAbiaXGqvBdSu-5" style="edgeStyle=orthogonalEdgeStyle;rounded=0;orthogonalLoop=1;jettySize=auto;html=1;entryX=1;entryY=0.5;entryDx=0;entryDy=0;" edge="1" parent="1c1d494c118603dd-1" source="IqG-Zo2VAbiaXGqvBdSu-2" target="LnvEPzy6kQ-SbxnsCrJ--40">
          <mxGeometry relative="1" as="geometry" />
        </mxCell>
      </root>
    </mxGraphModel>
  </diagram>
</mxfile>
